<?xml version="1.0" encoding="UTF-8" standalone="no"?>
<!-- Created with Inkscape (http://www.inkscape.org/) -->

<svg
   width="26.458336mm"
   height="26.458336mm"
   viewBox="0 0 26.458336 26.458336"
   version="1.1"
   id="svg5"
   xml:space="preserve"
   xmlns:xlink="http://www.w3.org/1999/xlink"
   xmlns="http://www.w3.org/2000/svg"
   xmlns:svg="http://www.w3.org/2000/svg"><defs
     id="defs2"><linearGradient
       id="linearGradient1214"><stop
         style="stop-color:#51e9e8;stop-opacity:1;"
         offset="0"
         id="stop1210" /><stop
         style="stop-color:#56e589;stop-opacity:1;"
         offset="1"
         id="stop1212" /></linearGradient><linearGradient
       xlink:href="#linearGradient1214"
       id="linearGradient1216"
       x1="96.09922"
       y1="14.622349"
       x2="148.89078"
       y2="66.807487"
       gradientUnits="userSpaceOnUse"
       gradientTransform="matrix(0.49999999,0,0,0.49999999,53.546768,7.1902067)" /></defs><g
     id="layer1"
     transform="translate(-101.5214,-14.318408)"><path
       id="path300"
       style="fill:url(#linearGradient1216);fill-opacity:1;stroke:none;stroke-width:0.025;stroke-linecap:round;stroke-linejoin:round"
       d="m 114.75057,14.318408 a 13.229167,13.229167 0 0 0 -13.22917,13.229167 13.229167,13.229167 0 0 0 13.22917,13.229166 13.229167,13.229167 0 0 0 13.22917,-13.229166 13.229167,13.229167 0 0 0 -2.03502,-7.047632 l -10.65258,10.65258 a 0.76536725,0.76536725 0 0 1 -1.08366,0 l -4.59196,-4.592485 a 0.7663344,0.7663344 0 1 1 1.08365,-1.083655 l 4.0504,4.051949 10.17302,-10.175089 a 0.7663344,0.7663344 0 0 1 0.12919,-0.102836 13.229167,13.229167 0 0 0 -10.30221,-4.931999 z m -0.15296,3.28042 a 9.9497743,9.9497743 0 0 1 5.12785,1.332218 0.76536725,0.76536725 0 0 1 -0.76533,1.325501 8.4190398,8.4190398 0 0 0 -12.62869,7.292578 8.419125,8.419125 0 0 0 16.83825,0 0.76536725,0.76536725 0 0 1 1.53066,0 9.9497743,9.9497743 0 1 1 -10.10274,-9.950297 z" /></g></svg>
